<svg xmlns="http://www.w3.org/2000/svg" viewBox="0 0 69 69"><path fill="#fbfbfb" d="M9.597 10.755v50.012H44.31c1.835 0 3.5-.741 4.699-1.929a6.52 6.52 0 0 0 1.954-4.657V10.755a2.534 2.534 0 0 0-2.55-2.526H12.147a2.534 2.534 0 0 0-2.549 2.526z"/><path fill="#e5e5e5" d="M50.96 10.752v.96H15.63c-1.41 0-2.55 1.13-2.55 2.53v46.52H9.6v-50.01c0-1.39 1.14-2.52 2.55-2.52h36.26c1.41 0 2.55 1.13 2.55 2.52z"/><path fill="#e5e5e5" d="M44.31 60.762H9.94c-1.84 0-3.5-.74-4.7-1.92a6.52 6.52 0 0 1-1.96-4.66v-2.02c0-1.1.9-2 2-2h32.38v4.02c0 1.82.74 3.47 1.94 4.66a6.728 6.728 0 0 0 4.71 1.92z"/><path fill="#fbfbfb" d="M37.66 50.162v2.94H8.22c-1.1 0-2 .9-2 2v2.02c0 1.05.25 2.04.7 2.92-.63-.31-1.19-.72-1.68-1.2a6.52 6.52 0 0 1-1.96-4.66v-2.02c0-1.1.9-2 2-2h32.38z"/><path fill="#59b9ff" d="M15.003 14.695h30.554v5.213H15.003z"/><path fill="#b4dff9" d="M45.56 14.695v2H20.21a3.21 3.21 0 0 0-3.21 3.21h-2v-5.21h30.56z"/><ellipse cx="53.628" cy="48.664" fill="#ffa301" rx="12.092" ry="12.038"/><path d="M15 20.66h30.56c.41 0 .75-.34.75-.75V14.7c0-.42-.34-.75-.75-.75H15c-.41 0-.75.33-.75.75v5.21c0 .41.34.75.75.75zm.75-5.21h29.06v3.71H15.75v-3.71zm29.808 8.92H15.003a.75.75 0 0 0 0 1.5h30.555a.75.75 0 0 0 0-1.5zm0 6.03H15.003a.75.75 0 0 0 0 1.5h30.555a.75.75 0 0 0 0-1.5zm0 6.03H15.003a.75.75 0 0 0 0 1.5h30.555a.75.75 0 0 0 0-1.5zm-5.912 6.031H15.003a.75.75 0 0 0 0 1.5h24.643a.75.75 0 0 0 0-1.5z"/><path d="M53.63 35.88c-.65 0-1.3.05-1.92.15V10.76c0-1.81-1.48-3.28-3.3-3.28H12.15c-1.82 0-3.3 1.47-3.3 3.28v38.65H5.28c-1.52 0-2.75 1.24-2.75 2.75v2.02c0 4.23 3.612 7.34 7.07 7.34h34.71c1.46 0 2.83-.44 4.02-1.21 1.61.73 3.41 1.14 5.3 1.14 7.08 0 12.84-5.73 12.84-12.79 0-7.05-5.76-12.78-12.84-12.78zM8.85 59.91c-2.689-.487-4.82-2.83-4.82-5.73v-2.02c0-.69.56-1.25 1.25-1.25h31.63v3.27a7.274 7.274 0 0 0 2.9 5.83c-32.642 0-30.212.046-30.96-.1zm35.52.11c-.02-.01-.04-.01-.06-.01-3.247 0-5.9-2.559-5.9-5.83v-4.02c0-.41-.33-.75-.75-.75H10.35V10.76c0-.98.8-1.78 1.8-1.78h36.26c1 0 1.8.8 1.8 1.78v25.58c-5.43 1.49-9.42 6.45-9.42 12.32 0 4.54 2.39 8.54 5.98 10.8-.74.35-1.55.55-2.4.56zm9.26-.07c-6.26 0-11.34-5.06-11.34-11.29 0-6.22 5.08-11.28 11.34-11.28 6.25 0 11.34 5.06 11.34 11.28 0 6.23-5.09 11.29-11.34 11.29z"/><path fill="#ffed91" d="M57.32 49.405c-.407-.44-.926-.76-1.556-.961a2.68 2.68 0 0 0 1.113-.904c.29-.405.434-.908.434-1.518 0-.868-.309-1.563-.926-2.075a3.13 3.13 0 0 0-1.145-.587v-1.351a.72.72 0 0 0-.722-.72h-.004a.72.72 0 0 0-.722.72v1.164h-1.436v-1.164a.72.72 0 0 0-.722-.72.72.72 0 0 0-.722.72v1.164h-.868a.684.684 0 0 0-.51.213.722.722 0 0 0-.205.512v9.55c0 .2.071.365.206.503a.693.693 0 0 0 .51.205h.867v1.164a.72.72 0 0 0 .722.719.72.72 0 0 0 .722-.72v-1.163h1.436v1.164a.72.72 0 0 0 .722.719h.004a.72.72 0 0 0 .722-.72v-1.27c-.026.004-.058.004-.08.009.756-.12 1.355-.361 1.789-.722.652-.543.979-1.3.979-2.266 0-.667-.206-1.224-.608-1.665zm-6.551-4.892h2.893c.706 0 1.26.147 1.668.44.402.294.608.686.608 1.18 0 .566-.192 1.006-.572 1.322-.376.312-1.038.472-1.972.472h-2.625v-3.414zm5.129 7.835c-.43.312-1.154.472-2.173.472h-2.956v-3.606h2.969c1.865 0 2.8.601 2.8 1.794 0 .579-.215 1.024-.64 1.34z"/></svg>