<svg xmlns="http://www.w3.org/2000/svg" viewBox="0 0 64 64"><path fill="#96a1c3" d="M29,43.76V51H23l9,9,9-9H35V43.76a21,21,0,1,0-6,0Z"/><circle cx="32" cy="23" r="16" fill="#ccd3eb"/><circle cx="32" cy="23" r="12" fill="#f5f7ff"/><path fill="#ffa100" d="M36.36,22.55a3.45,3.45,0,0,0,.64-2v-.12A3.45,3.45,0,0,0,34,17V16a1,1,0,0,0-2,0v1H30V16a1,1,0,0,0-2,0v1H27a1,1,0,0,0,0,2v8a1,1,0,0,0,0,2h1v1a1,1,0,0,0,2,0V29h2v1a1,1,0,0,0,2,0V29h.5a3.49,3.49,0,0,0,1.86-6.45ZM33,19h.56A1.45,1.45,0,0,1,35,20.44v.12A1.45,1.45,0,0,1,33.56,22H29V19Zm1.5,8H29V24h5.5a1.5,1.5,0,0,1,0,3Z"/><path fill="#647499" d="M16.91 29.32a1 1 0 0 1-.94-.66A17 17 0 0 1 32 6a17.13 17.13 0 0 1 7.87 1.92 1 1 0 0 1-.93 1.78A15 15 0 0 0 17.85 28a1 1 0 0 1-.6 1.27A1.06 1.06 0 0 1 16.91 29.32zM32 40a17 17 0 0 1-14.15-7.56 1 1 0 0 1 1.66-1.12A15 15 0 1 0 42 11.83a1 1 0 0 1 1.34-1.5A17 17 0 0 1 32 40z"/><path fill="#033c59" d="M32 61a1 1 0 0 1-.71-.29l-9-9a1 1 0 0 1-.21-1.09A1 1 0 0 1 23 50h5V44.61A22 22 0 0 1 29.91 1.1a1 1 0 0 1 .18 2 20 20 0 0 0-.95 39.67 1 1 0 0 1 .86 1V51a1 1 0 0 1-1 1H25.41L32 58.59 38.59 52H35a1 1 0 0 1-1-1V43.76a1 1 0 0 1 .86-1A20.06 20.06 0 0 0 43.7 39.2a1 1 0 0 1 1.39.22 1 1 0 0 1-.22 1.4A22.16 22.16 0 0 1 36 44.61V50h5a1 1 0 0 1 .92.62 1 1 0 0 1-.21 1.09l-9 9A1 1 0 0 1 32 61zM49.78 35.16A1 1 0 0 1 49 33.54 20 20 0 0 0 33.91 3.1a1 1 0 1 1 .18-2A22 22 0 0 1 50.63 34.69 1 1 0 0 1 49.78 35.16zm0-1h0zM47.23 38.43a1 1 0 0 1-.71-.29 1 1 0 0 1 0-1.42l.14-.15a1 1 0 1 1 1.52 1.3 2.91 2.91 0 0 1-.24.27A1 1 0 0 1 47.23 38.43z"/></svg>